<svg viewBox="0 0 16 16" fill="none" xmlns="http://www.w3.org/2000/svg">
  <path fill-rule="evenodd" clip-rule="evenodd"
        d="M7.99967 1.3335C11.6816 1.3335 14.6663 4.31826 14.6663 8.00016C14.6663 11.6821 11.6816 14.6668 7.99967 14.6668C4.31778 14.6668 1.33301 11.6821 1.33301 8.00016C1.33301 4.31826 4.31778 1.3335 7.99967 1.3335ZM7.99967 4.66683C7.2633 4.66683 6.66634 5.26378 6.66634 6.00016V6.66683H5.33301V6.00016C5.33301 4.5274 6.52692 3.3335 7.99967 3.3335H8.16771C9.54767 3.3335 10.6663 4.45217 10.6663 5.83212C10.6663 6.54339 10.3838 7.22552 9.88085 7.72846L8.94248 8.66683C8.76567 8.84364 8.66634 9.08345 8.66634 9.3335H7.33301C7.33301 8.72983 7.57282 8.15088 7.99967 7.72402L8.93804 6.78565C9.19094 6.53276 9.33301 6.18977 9.33301 5.83212C9.33301 5.18855 8.81129 4.66683 8.16771 4.66683H7.99967ZM7.99967 10.6668C7.44739 10.6668 6.99967 11.1145 6.99967 11.6668C6.99967 12.2191 7.44739 12.6668 7.99967 12.6668C8.55196 12.6668 8.99967 12.2191 8.99967 11.6668C8.99967 11.1145 8.55196 10.6668 7.99967 10.6668Z"
        fill="currentColor"/>
</svg>
