<svg viewBox="0 0 16 16" fill="none" xmlns="http://www.w3.org/2000/svg">
  <path
    d="M8 15.3335V14.0002H12.6667V13.3335H10V8.00016H12.6667V7.3335C12.6667 6.04461 12.2111 4.94461 11.3 4.0335C10.3889 3.12239 9.28889 2.66683 8 2.66683C6.71111 2.66683 5.61111 3.12239 4.7 4.0335C3.78889 4.94461 3.33333 6.04461 3.33333 7.3335V8.00016H6V13.3335H3.33333C2.96667 13.3335 2.65278 13.2029 2.39167 12.9418C2.13056 12.6807 2 12.3668 2 12.0002V7.3335C2 6.51127 2.15833 5.73627 2.475 5.0085C2.79167 4.28072 3.22222 3.64461 3.76667 3.10016C4.31111 2.55572 4.94722 2.12516 5.675 1.8085C6.40278 1.49183 7.17778 1.3335 8 1.3335C8.82222 1.3335 9.59722 1.49183 10.325 1.8085C11.0528 2.12516 11.6889 2.55572 12.2333 3.10016C12.7778 3.64461 13.2083 4.28072 13.525 5.0085C13.8417 5.73627 14 6.51127 14 7.3335V14.0002C14 14.3668 13.8694 14.6807 13.6083 14.9418C13.3472 15.2029 13.0333 15.3335 12.6667 15.3335H8Z"
    fill="currentColor"/>
</svg>
