<svg viewBox="0 0 20 20" fill="none" xmlns="http://www.w3.org/2000/svg">
  <path fill-rule="evenodd" clip-rule="evenodd"
        d="M19.3279 17.1003C19.6308 17.6556 19.2288 18.3326 18.5963 18.3326H1.40385C0.771297 18.3326 0.369369 17.6556 0.672267 17.1003L9.26848 1.34054C9.58433 0.761487 10.4158 0.761487 10.7316 1.34054L19.3279 17.1003ZM10.3061 6.66598C10.8073 6.66598 11.1951 7.1053 11.133 7.60267L10.7026 11.0458C10.6583 11.4001 10.3571 11.666 10.0001 11.666C9.64301 11.666 9.34183 11.4001 9.29754 11.0458L8.86715 7.60267C8.80498 7.1053 9.1928 6.66598 9.69405 6.66598H10.3061ZM8.75006 14.5826C8.75006 13.8923 9.3097 13.3326 10.0001 13.3326C10.6904 13.3326 11.2501 13.8923 11.2501 14.5826C11.2501 15.273 10.6904 15.8326 10.0001 15.8326C9.3097 15.8326 8.75006 15.273 8.75006 14.5826Z"
        fill="currentColor"/>
</svg>
