<svg viewBox="0 0 32 32" fill="none" xmlns="http://www.w3.org/2000/svg">
  <path
    d="M8 25.3337V26.667C8 27.0448 7.87222 27.3614 7.61667 27.617C7.36111 27.8725 7.04444 28.0003 6.66667 28.0003H5.33333C4.95556 28.0003 4.63889 27.8725 4.38333 27.617C4.12778 27.3614 4 27.0448 4 26.667V16.0003L6.8 8.00033C6.93333 7.60033 7.17222 7.2781 7.51667 7.03366C7.86111 6.78921 8.24444 6.66699 8.66667 6.66699H23.3333C23.7556 6.66699 24.1389 6.78921 24.4833 7.03366C24.8278 7.2781 25.0667 7.60033 25.2 8.00033L28 16.0003V26.667C28 27.0448 27.8722 27.3614 27.6167 27.617C27.3611 27.8725 27.0444 28.0003 26.6667 28.0003H25.3333C24.9556 28.0003 24.6389 27.8725 24.3833 27.617C24.1278 27.3614 24 27.0448 24 26.667V25.3337H8ZM7.73333 13.3337H24.2667L22.8667 9.33366H9.13333L7.73333 13.3337ZM10 21.3337C10.5556 21.3337 11.0278 21.1392 11.4167 20.7503C11.8056 20.3614 12 19.8892 12 19.3337C12 18.7781 11.8056 18.3059 11.4167 17.917C11.0278 17.5281 10.5556 17.3337 10 17.3337C9.44444 17.3337 8.97222 17.5281 8.58333 17.917C8.19444 18.3059 8 18.7781 8 19.3337C8 19.8892 8.19444 20.3614 8.58333 20.7503C8.97222 21.1392 9.44444 21.3337 10 21.3337ZM22 21.3337C22.5556 21.3337 23.0278 21.1392 23.4167 20.7503C23.8056 20.3614 24 19.8892 24 19.3337C24 18.7781 23.8056 18.3059 23.4167 17.917C23.0278 17.5281 22.5556 17.3337 22 17.3337C21.4444 17.3337 20.9722 17.5281 20.5833 17.917C20.1944 18.3059 20 18.7781 20 19.3337C20 19.8892 20.1944 20.3614 20.5833 20.7503C20.9722 21.1392 21.4444 21.3337 22 21.3337Z"
    fill="currentColor"/>
</svg>
