<svg viewBox="0 0 128 128" fill="none" xmlns="http://www.w3.org/2000/svg">
  <path d="M36 96L92 62" stroke="#E5E7EB" stroke-width="4"/>
  <path d="M92 96L36 62" stroke="#E5E7EB" stroke-width="4"/>
  <rect x="26" y="44" width="6" height="68" fill="#6B7280"/>
  <rect x="20" y="52" width="4" height="52" fill="#D1D5DB"/>
  <rect x="104" y="52" width="4" height="52" fill="#D1D5DB"/>
  <rect x="96" y="44" width="6" height="68" fill="#6B7280"/>
  <path d="M32 96H58V104H32V96Z" fill="#D1D5DB"/>
  <path d="M70 96H96V104H70V96Z" fill="#D1D5DB"/>
  <path d="M32 58H96V62H32V58Z" fill="#D1D5DB"/>
  <path d="M32 36H96V40H32V36Z" fill="#D1D5DB"/>
  <path d="M32 8H96V12H32V8Z" fill="#D1D5DB"/>
  <path d="M32 50H96V58H32V50Z" fill="#9CA3AF"/>
  <rect x="32" y="8" width="4" height="88" fill="#D1D5DB"/>
  <rect x="92" y="8" width="4" height="88" fill="#D1D5DB"/>
  <path d="M32 32H36V36H32V32Z" fill="#9CA3AF"/>
  <path d="M92 32H96V36H92V32Z" fill="#9CA3AF"/>
  <rect x="26" y="8" width="6" height="4" fill="#9CA3AF"/>
  <rect x="96" y="8" width="6" height="4" fill="#9CA3AF"/>
  <path d="M26 116L18 120L26 124V116Z" fill="#F27A20"/>
  <rect x="26" y="119" width="76" height="2" fill="#F27A20"/>
  <path d="M102 116L110 120L102 124V116Z" fill="#F27A20"/>
</svg>
