<svg viewBox="0 0 32 32" fill="none" xmlns="http://www.w3.org/2000/svg">
  <path
    d="M16 8.00033C15.2666 8.00033 14.6388 7.73921 14.1166 7.21699C13.5944 6.69477 13.3333 6.06699 13.3333 5.33366C13.3333 4.60033 13.5944 3.97255 14.1166 3.45033C14.6388 2.9281 15.2666 2.66699 16 2.66699C16.7333 2.66699 17.3611 2.9281 17.8833 3.45033C18.4055 3.97255 18.6666 4.60033 18.6666 5.33366C18.6666 6.06699 18.4055 6.69477 17.8833 7.21699C17.3611 7.73921 16.7333 8.00033 16 8.00033ZM22.6666 29.3337V22.667H16C15.2666 22.667 14.6388 22.4059 14.1166 21.8837C13.5944 21.3614 13.3333 20.7337 13.3333 20.0003V12.0003C13.3333 11.267 13.5944 10.6392 14.1166 10.117C14.6388 9.59477 15.2666 9.33366 16 9.33366C16.5333 9.33366 16.9944 9.45033 17.3833 9.68366C17.7722 9.91699 18.1888 10.2892 18.6333 10.8003C19.8555 12.267 20.9611 13.2725 21.95 13.817C22.9388 14.3614 24.0666 14.6448 25.3333 14.667V17.3337C24.1555 17.3337 22.9666 17.0781 21.7666 16.567C20.5666 16.0559 19.5333 15.4448 18.6666 14.7337V19.3337H22.6666C23.4 19.3337 24.0277 19.5948 24.55 20.117C25.0722 20.6392 25.3333 21.267 25.3333 22.0003V29.3337H22.6666ZM13.3333 29.3337C11.4888 29.3337 9.91663 28.6837 8.61663 27.3837C7.31663 26.0837 6.66663 24.5114 6.66663 22.667C6.66663 21.067 7.17218 19.6559 8.18329 18.4337C9.1944 17.2114 10.4666 16.4448 12 16.1337V18.867C11.2222 19.1781 10.5833 19.6725 10.0833 20.3503C9.58329 21.0281 9.33329 21.8003 9.33329 22.667C9.33329 23.7781 9.72218 24.7225 10.5 25.5003C11.2777 26.2781 12.2222 26.667 13.3333 26.667C14.2 26.667 14.9722 26.417 15.65 25.917C16.3277 25.417 16.8222 24.7781 17.1333 24.0003H19.8666C19.5555 25.5337 18.7888 26.8059 17.5666 27.817C16.3444 28.8281 14.9333 29.3337 13.3333 29.3337Z"
    fill="currentColor"/>
</svg>
